<svg xmlns="http://www.w3.org/2000/svg" viewBox="0 0 424 512"><g fill="none" fill-rule="evenodd"><path d="M423 317.609v141.202c0 29.244-23.66 52.978-52.972 52.978-21.26 0-39.623-12.574-47.958-30.656C290.005 500.699 252.29 512 211.888 512 94.855 512 0 417.136 0 300.09l60.812 49.446v-.07l45.132-49.376c0 58.487 47.463 105.955 105.944 105.955 50.289 0 92.313-35.036 103.19-81.938L364.448 270 423 317.609Z" fill="#162D87"/><path d="m424.003 299.93-60.174-48.918-.565-.494h-.063v.07l-45.125 49.341c0-58.447-47.385-105.882-105.928-105.882-50.21 0-92.298 35.012-103.173 81.882L59.606 330 1.064 282.424v-.071H1V0c29.307 0 55.71 11.859 74.926 30.988 19.137 19.13 31.001 45.67 31.001 74.894v10.306c30.995-17.859 66.869-28.023 105.221-28.023 117.008 0 211.855 94.8 211.855 211.764" fill="#52BCB6"/></g></svg>